<svg xmlns="http://www.w3.org/2000/svg" xmlns:xlink="http://www.w3.org/1999/xlink" viewBox="0 0 104.83 103.49"><defs><style>.cls-1{mask:url(#mask);}.cls-2{fill:#f6a8d1;}</style><mask id="mask" x="-452.08" y="-273.03" width="848.2" height="566.22" maskUnits="userSpaceOnUse"><image width="4500" height="3004" transform="translate(-452.08 -273.03) scale(0.19)" xlink:href="../../../texture/white-concrete-wall.jpg"/></mask></defs><g id="Layer_2" data-name="Layer 2"><g id="ปุ่มกดเริ่ม"><g class="cls-1"><path class="cls-2" d="M100,90.25l.1-.43a3.56,3.56,0,0,0-.28-2.42,18,18,0,0,1-1.14-2.82,18.94,18.94,0,0,1,.88-13.25c2.62-5.91,7.76-19.36,3.93-26.61L98.12,31.91c-.8-1.92-1.54-3.87-2.25-5.82-1.29-3.56-4.73-11.06-11.48-14-2.72-1.2-5.44-2.38-8-3.79C70.16,4.93,58.25-.23,44,0a18.09,18.09,0,0,0-6.52,1.38c-9,3.68-33.3,15.84-36.25,40.54,0,0-4.71,23.82,4.3,39.13a20.65,20.65,0,0,0,5,5.65c2.79,2.23,7.85,6.11,13.57,9.78C37.55,105.1,54.79,106,68.66,98A34,34,0,0,0,78,90.36a3,3,0,0,1,3.25-.94A79,79,0,0,0,96.14,93,3.57,3.57,0,0,0,100,90.25Z"/></g></g></g></svg>