<svg xmlns="http://www.w3.org/2000/svg" xmlns:xlink="http://www.w3.org/1999/xlink" viewBox="0 0 497.42 93.12"><defs><style>.cls-1{mask:url(#mask);}.cls-2{fill:#f6a8d1;}</style><mask id="mask" x="-181.14" y="-208.45" width="907.99" height="606.13" maskUnits="userSpaceOnUse"><image width="4500" height="3004" transform="translate(-181.14 -208.45) scale(0.2)" xlink:href="../../../texture/white-concrete-wall.jpg"/></mask></defs><g id="Layer_2" data-name="Layer 2"><g id="ปุ่มกดเริ่ม"><g class="cls-1"><path class="cls-2" d="M496.85,22.22A23,23,0,0,0,474.42,1.09C431.32.16,325.55-1.51,275.18,3c0,0-101.62,9.23-156.25,3.81a314.25,314.25,0,0,0-53.13-1C50.29,6.88,32.7,8.8,19,12.18A23.86,23.86,0,0,0,1.11,31.9C-1.1,47.08-1.38,70.74,13.66,86.64a11.38,11.38,0,0,0,7.73,3.5c10.84.53,40.57,1.94,68.46,2.78a432.67,432.67,0,0,0,82.06-5.27c19.78-3.2,47.92-6.43,74.75-4.85,0,0,211,8.56,229.53,0,0,0,18.53-10,20-21.38A222.62,222.62,0,0,0,496.85,22.22Z"/></g></g></g></svg>