<svg xmlns="http://www.w3.org/2000/svg" xmlns:xlink="http://www.w3.org/1999/xlink" viewBox="0 0 30.07 29.68"><defs><style>.cls-1{mask:url(#mask);}.cls-2{fill:#f6a8d1;}</style><mask id="mask" x="-129.68" y="-78.32" width="243.3" height="162.42" maskUnits="userSpaceOnUse"><image width="4500" height="3004" transform="translate(-129.68 -78.32) scale(0.05)" xlink:href="../../../texture/white-concrete-wall.jpg"/></mask></defs><g id="Layer_2" data-name="Layer 2"><g id="ปุ่มกดเริ่ม"><g class="cls-1"><path class="cls-2" d="M28.68,25.89l0-.13a1,1,0,0,0-.08-.69,5,5,0,0,1-.32-.81,5.42,5.42,0,0,1,.25-3.8c.75-1.69,2.23-5.55,1.13-7.63L28.14,9.15C27.92,8.6,27.7,8,27.5,7.48a7,7,0,0,0-3.29-4c-.78-.34-1.56-.68-2.31-1.09A19.29,19.29,0,0,0,12.62,0a5.27,5.27,0,0,0-1.87.4C8.18,1.45,1.2,4.94.35,12c0,0-1.35,6.83,1.24,11.22A5.65,5.65,0,0,0,3,24.87c.8.64,2.25,1.75,3.9,2.81a12.36,12.36,0,0,0,12.78.43,9.62,9.62,0,0,0,2.67-2.19.87.87,0,0,1,.93-.27,23.13,23.13,0,0,0,4.29,1A1,1,0,0,0,28.68,25.89Z"/></g></g></g></svg>