<svg xmlns="http://www.w3.org/2000/svg" xmlns:xlink="http://www.w3.org/1999/xlink" viewBox="0 0 193.09 26.71"><defs><style>.cls-1{mask:url(#mask);}.cls-2{fill:#f6a8d1;}</style><mask id="mask" x="-70.32" y="-59.79" width="352.47" height="173.86" maskUnits="userSpaceOnUse"><image width="4500" height="3004" transform="translate(-70.32 -59.79) scale(0.08 0.06)" xlink:href="../../../texture/white-concrete-wall.jpg"/></mask></defs><g id="Layer_2" data-name="Layer 2"><g id="ปุ่มกดเริ่ม"><g class="cls-1"><path class="cls-2" d="M192.87,6.37c-.38-3.37-4.13-6-8.71-6.06-16.73-.26-57.79-.74-77.34.54,0,0-39.45,2.65-60.65,1.09a167.05,167.05,0,0,0-20.63-.28A153,153,0,0,0,7.37,3.49C3.72,4.16,1,6.4.43,9.15c-.86,4.36-1,11.14,4.87,15.7a5.27,5.27,0,0,0,3,1c4.21.15,15.75.55,26.58.79a225.54,225.54,0,0,0,31.85-1.51,187,187,0,0,1,29-1.39s81.91,2.45,89.1,0c0,0,7.19-2.86,7.75-6.13A47.36,47.36,0,0,0,192.87,6.37Z"/></g></g></g></svg>